# xmcd
#
# Track frame offsets:
#	150
#	23952
#	41610
#	69759
#	105687
#	137175
#	161081
#	187317
#	203313
#
# Disc length: 3595 seconds
#
# Revision: 0
# Processed by: cddbd v1.5.1PL0 Copyright (c) Steve Scherf et al.
# Submitted via: dBpowerAMP V4.0
#
DISCID=790e0909
DTITLE=American Altitude - American Altitude
DYEAR=2003
DGENRE=Alt Country
TTITLE0=Mountain and A Missle
TTITLE1=Hung Like A Woman
TTITLE2=How Long
TTITLE3=Dodge City Chamber Of Commerce
TTITLE4=Handsome Dead Man
TTITLE5=Alpharetta
TTITLE6=Miami
TTITLE7=Euronymous
TTITLE8=Running In The Rain Theory
EXTD=
EXTT0=
EXTT1=
EXTT2=
EXTT3=
EXTT4=
EXTT5=
EXTT6=
EXTT7=
EXTT8=
PLAYORDER=
